<svg data-v-70b83f88="" version="1.0" width="431" height="317" preserveAspectRatio="xMidYMid meet" color-interpolation-filters="sRGB" style="margin: auto;" xmlns="http://www.w3.org/2000/svg">
  <g data-v-70b83f88="" fill="#FFFFFF" class="endsvg" transform="matrix(1.013908, 0, 0, 0.996567, 42.902691, 119.238541)" style="">
    <g class="tp-name" fill="#FFFFFF">
      <g fill="#FFFFFF">
        <rect data-gra="graph-name-bg" stroke-width="2px" class="i-icon-bg" stroke="#FFFFFF" x="0" y="0" width="242.83001708984375" height="37.970001220703125" fill-opacity="0" fill="#FFFFFF" style=""></rect>
      </g>
      <g transform="translate(0,0)" fill="#FFFFFF">
        <g data-gra="path-name-bg" fill="#FFFFFF">
          <g fill="#FFFFFF">
            <rect data-gra="graph-name-bg" stroke-width="2px" class="i-icon-bg" x="0" y="0" width="105.31999969482422" height="37.970001220703125" fill-opacity="0" fill="#FFFFFF"></rect>
          </g>
          <g transform="translate(5,5)" fill="#FFFFFF">
            <g data-gra="path-name" fill="#FFFFFF">
              <g transform="scale(1)" fill="#FFFFFF">
                <path d="M12.55 0L3.44 0L3.44-27.22L11.48-27.22Q15.86-27.22 18.12-25.42Q20.38-23.62 20.38-20.10L20.38-20.10Q20.38-17.99 19.23-16.43Q18.08-14.86 16.08-14.19L16.08-14.19Q18.45-13.67 19.90-11.85Q21.35-10.04 21.35-7.67L21.35-7.67Q21.35-4.06 19.02-2.03Q16.70 0 12.55 0L12.55 0ZM12.83-13.09L5.74-13.09L5.74-1.94L12.64-1.94Q15.59-1.94 17.32-3.45Q19.05-4.95 19.05-7.63L19.05-7.63Q19.05-10.15 17.40-11.62Q15.74-13.09 12.83-13.09L12.83-13.09ZM5.74-25.26L5.74-15.01L12.02-15.01Q14.90-15.07 16.48-16.37Q18.06-17.67 18.06-20.16L18.06-20.16Q18.06-22.77 16.43-24.02Q14.79-25.26 11.48-25.26L11.48-25.26L5.74-25.26ZM47.02-15.39L47.02-12.13Q47.02-8.38 45.73-5.53Q44.43-2.69 42.01-1.16Q39.60 0.37 36.44 0.37L36.44 0.37Q31.67 0.37 28.74-3.04Q25.80-6.45 25.80-12.25L25.80-12.25L25.80-15.05Q25.80-18.77 27.12-21.64Q28.44-24.51 30.85-26.06Q33.26-27.60 36.40-27.60Q39.55-27.60 41.95-26.08Q44.35-24.57 45.66-21.80Q46.97-19.03 47.02-15.39L47.02-15.39ZM44.72-12.21L44.72-15.09Q44.72-20.01 42.50-22.79Q40.27-25.58 36.40-25.58L36.40-25.58Q32.61-25.58 30.36-22.78Q28.10-19.99 28.10-14.98L28.10-14.98L28.10-12.13Q28.10-7.29 30.35-4.46Q32.59-1.63 36.44-1.63L36.44-1.63Q40.35-1.63 42.54-4.42Q44.72-7.22 44.72-12.21L44.72-12.21ZM72.94-15.39L72.94-12.13Q72.94-8.38 71.64-5.53Q70.34-2.69 67.93-1.16Q65.52 0.37 62.36 0.37L62.36 0.37Q57.59 0.37 54.65-3.04Q51.72-6.45 51.72-12.25L51.72-12.25L51.72-15.05Q51.72-18.77 53.04-21.64Q54.35-24.51 56.77-26.06Q59.18-27.60 62.32-27.60Q65.46-27.60 67.86-26.08Q70.27-24.57 71.57-21.80Q72.88-19.03 72.94-15.39L72.94-15.39ZM70.64-12.21L70.64-15.09Q70.64-20.01 68.41-22.79Q66.19-25.58 62.32-25.58L62.32-25.58Q58.52-25.58 56.27-22.78Q54.02-19.99 54.02-14.98L54.02-14.98L54.02-12.13Q54.02-7.29 56.26-4.46Q58.50-1.63 62.36-1.63L62.36-1.63Q66.26-1.63 68.45-4.42Q70.64-7.22 70.64-12.21L70.64-12.21ZM95.96 0L84.87-13.52L81.04-9.74L81.04 0L78.74 0L78.74-27.22L81.04-27.22L81.04-12.55L94.98-27.22L97.88-27.22L86.48-15.11L98.76 0L95.96 0Z" transform="translate(-3.440370701568978, 27.59775627997724)" fill="#FFFFFF"></path>
              </g>
            </g>
          </g>
        </g>
        <g data-gra="path-name-1-bg" transform="translate(105.31999969482422,0)" mask="url(#cdfa0f2c-e95f-4859-9645-4e1d9c0e43c5)" fill="#FFFFFF">
          <g fill="#FFFFFF">
            <rect data-gra="graph-name-bg" stroke-width="2px" class="i-icon-bg" x="0" y="0" width="137.510009765625" height="37.970001220703125" fill="#FFFFFF"></rect>
          </g>
          <g transform="translate(5,5)" fill="#FFFFFF">
            <g data-gra="path-name-1" fill="#FFFFFF">
              <g transform="scale(1)" fill="#FFFFFF">
                <path d="M19.20-15.89L19.20-10.84L8.62-10.84L8.62 0L2.06 0L2.06-27.22L20.27-27.22L20.27-22.16L8.62-22.16L8.62-15.89L19.20-15.89ZM29.99-27.22L29.99 0L23.45 0L23.45-27.22L29.99-27.22ZM57.29-27.22L57.29 0L50.76 0L41.12-16.94L41.12 0L34.55 0L34.55-27.22L41.12-27.22L50.75-10.28L50.75-27.22L57.29-27.22ZM70.40 0L61.44 0L61.44-27.22L70.21-27.22Q73.82-27.22 76.70-25.59Q79.58-23.95 81.19-20.97Q82.81-17.99 82.83-14.29L82.83-14.29L82.83-13.03Q82.83-9.29 81.25-6.33Q79.67-3.37 76.80-1.69Q73.93-0.02 70.40 0L70.40 0ZM70.21-22.16L68.00-22.16L68.00-5.05L70.28-5.05Q73.11-5.05 74.62-7.06Q76.14-9.07 76.14-13.03L76.14-13.03L76.14-14.21Q76.14-18.16 74.62-20.16Q73.11-22.16 70.21-22.16L70.21-22.16ZM103.08-16.42L103.08-11.54L92.76-11.54L92.76-5.05L104.95-5.05L104.95 0L86.20 0L86.20-27.22L104.99-27.22L104.99-22.16L92.76-22.16L92.76-16.42L103.08-16.42ZM122.54 0L117.74-9.61L114.19-9.61L114.19 0L107.62 0L107.62-27.22L118.34-27.22Q123.18-27.22 125.91-25.07Q128.64-22.92 128.64-19.00L128.64-19.00Q128.64-16.15 127.49-14.29Q126.34-12.42 123.89-11.26L123.89-11.26L129.57-0.28L129.57 0L122.54 0ZM114.19-22.16L114.19-14.68L118.34-14.68Q120.21-14.68 121.15-15.66Q122.10-16.64 122.10-18.40Q122.10-20.16 121.14-21.16Q120.19-22.16 118.34-22.16L118.34-22.16L114.19-22.16Z" transform="translate(-2.0567433541988454, 27.59775627997724)" fill="#FFFFFF"></path>
              </g>
            </g>
          </g>
        </g>
      </g>
    </g>
  </g>
  <mask id="cdfa0f2c-e95f-4859-9645-4e1d9c0e43c5">
    <g fill="#FFFFFF">
      <rect data-gra="graph-name-bg" stroke-width="2px" class="i-icon-bg" x="0" y="0" width="137.510009765625" height="37.970001220703125" fill="#FFFFFF"></rect>
    </g>
    <g transform="translate(5,5)" fill="black">
      <g data-gra="path-name-1">
        <g transform="scale(1)">
          <path d="M19.20-15.89L19.20-10.84L8.62-10.84L8.62 0L2.06 0L2.06-27.22L20.27-27.22L20.27-22.16L8.62-22.16L8.62-15.89L19.20-15.89ZM29.99-27.22L29.99 0L23.45 0L23.45-27.22L29.99-27.22ZM57.29-27.22L57.29 0L50.76 0L41.12-16.94L41.12 0L34.55 0L34.55-27.22L41.12-27.22L50.75-10.28L50.75-27.22L57.29-27.22ZM70.40 0L61.44 0L61.44-27.22L70.21-27.22Q73.82-27.22 76.70-25.59Q79.58-23.95 81.19-20.97Q82.81-17.99 82.83-14.29L82.83-14.29L82.83-13.03Q82.83-9.29 81.25-6.33Q79.67-3.37 76.80-1.69Q73.93-0.02 70.40 0L70.40 0ZM70.21-22.16L68.00-22.16L68.00-5.05L70.28-5.05Q73.11-5.05 74.62-7.06Q76.14-9.07 76.14-13.03L76.14-13.03L76.14-14.21Q76.14-18.16 74.62-20.16Q73.11-22.16 70.21-22.16L70.21-22.16ZM103.08-16.42L103.08-11.54L92.76-11.54L92.76-5.05L104.95-5.05L104.95 0L86.20 0L86.20-27.22L104.99-27.22L104.99-22.16L92.76-22.16L92.76-16.42L103.08-16.42ZM122.54 0L117.74-9.61L114.19-9.61L114.19 0L107.62 0L107.62-27.22L118.34-27.22Q123.18-27.22 125.91-25.07Q128.64-22.92 128.64-19.00L128.64-19.00Q128.64-16.15 127.49-14.29Q126.34-12.42 123.89-11.26L123.89-11.26L129.57-0.28L129.57 0L122.54 0ZM114.19-22.16L114.19-14.68L118.34-14.68Q120.21-14.68 121.15-15.66Q122.10-16.64 122.10-18.40Q122.10-20.16 121.14-21.16Q120.19-22.16 118.34-22.16L118.34-22.16L114.19-22.16Z" transform="translate(-2.0567433541988454, 27.59775627997724)"></path>
        </g>
      </g>
    </g>
  </mask>
  <defs v-gra="od"></defs>
</svg>